<svg width="24" height="24" viewBox="0 0 24 24" fill="none" xmlns="http://www.w3.org/2000/svg">
<mask id="mask0_434_530" style="mask-type:alpha" maskUnits="userSpaceOnUse" x="0" y="0" width="24" height="24">
<rect width="24" height="24" fill="#D9D9D9"/>
</mask>
<g mask="url(#mask0_434_530)">
<path d="M10.6008 16C10.6008 14.65 10.7216 13.6792 10.9633 13.0875C11.2049 12.4958 11.7174 11.85 12.5008 11.15C13.1841 10.55 13.7049 10.0292 14.0633 9.5875C14.4216 9.14583 14.6008 8.64167 14.6008 8.075C14.6008 7.39167 14.3716 6.825 13.9133 6.375C13.4549 5.925 12.8174 5.7 12.0008 5.7C11.1508 5.7 10.5049 5.95833 10.0633 6.475C9.62161 6.99167 9.30911 7.51667 9.12578 8.05L6.55078 6.95C6.90078 5.88333 7.54245 4.95833 8.47578 4.175C9.40911 3.39167 10.5841 3 12.0008 3C13.7508 3 15.0966 3.4875 16.0383 4.4625C16.9799 5.4375 17.4508 6.60833 17.4508 7.975C17.4508 8.80833 17.2716 9.52083 16.9133 10.1125C16.5549 10.7042 15.9924 11.375 15.2258 12.125C14.4091 12.9083 13.9133 13.5042 13.7383 13.9125C13.5633 14.3208 13.4758 15.0167 13.4758 16H10.6008ZM12.0008 22C11.4508 22 10.9799 21.8042 10.5883 21.4125C10.1966 21.0208 10.0008 20.55 10.0008 20C10.0008 19.45 10.1966 18.9792 10.5883 18.5875C10.9799 18.1958 11.4508 18 12.0008 18C12.5508 18 13.0216 18.1958 13.4133 18.5875C13.8049 18.9792 14.0008 19.45 14.0008 20C14.0008 20.55 13.8049 21.0208 13.4133 21.4125C13.0216 21.8042 12.5508 22 12.0008 22Z" fill="#1C1B1F"/>
</g>
</svg>
