<svg width="24" height="24" viewBox="0 0 24 24" fill="none" xmlns="http://www.w3.org/2000/svg">
<mask id="mask0_466_560" style="mask-type:alpha" maskUnits="userSpaceOnUse" x="0" y="0" width="24" height="24">
<rect width="24" height="24" fill="#D9D9D9"/>
</mask>
<g mask="url(#mask0_466_560)">
<path d="M5.65078 10.0249L7.60078 10.8499C7.83411 10.3832 8.07578 9.93319 8.32578 9.49986C8.57578 9.06653 8.85078 8.63319 9.15078 8.19986L7.75078 7.92486L5.65078 10.0249ZM9.20078 12.0999L12.0508 14.9249C12.7508 14.6582 13.5008 14.2499 14.3008 13.6999C15.1008 13.1499 15.8508 12.5249 16.5508 11.8249C17.7174 10.6582 18.6299 9.36236 19.2883 7.93736C19.9466 6.51236 20.2341 5.19986 20.1508 3.99986C18.9508 3.91653 17.6341 4.20403 16.2008 4.86236C14.7674 5.52069 13.4674 6.4332 12.3008 7.59986C11.6008 8.29986 10.9758 9.04986 10.4258 9.84986C9.87578 10.6499 9.46745 11.3999 9.20078 12.0999ZM13.6508 10.4749C13.2674 10.0915 13.0758 9.62069 13.0758 9.06236C13.0758 8.50403 13.2674 8.0332 13.6508 7.64986C14.0341 7.26653 14.5091 7.07486 15.0758 7.07486C15.6424 7.07486 16.1174 7.26653 16.5008 7.64986C16.8841 8.0332 17.0758 8.50403 17.0758 9.06236C17.0758 9.62069 16.8841 10.0915 16.5008 10.4749C16.1174 10.8582 15.6424 11.0499 15.0758 11.0499C14.5091 11.0499 14.0341 10.8582 13.6508 10.4749ZM14.1258 18.4999L16.2258 16.3999L15.9508 14.9999C15.5174 15.2999 15.0841 15.5707 14.6508 15.8124C14.2174 16.054 13.7674 16.2915 13.3008 16.5249L14.1258 18.4999ZM21.9508 2.17486C22.2674 4.19153 22.0716 6.15403 21.3633 8.06236C20.6549 9.9707 19.4341 11.7915 17.7008 13.5249L18.2008 15.9999C18.2674 16.3332 18.2508 16.6582 18.1508 16.9749C18.0508 17.2915 17.8841 17.5665 17.6508 17.7999L13.4508 21.9999L11.3508 17.0749L7.07578 12.7999L2.15078 10.6999L6.32578 6.49986C6.55911 6.26653 6.83828 6.09986 7.16328 5.99986C7.48828 5.89986 7.81745 5.88319 8.15078 5.94986L10.6258 6.44986C12.3591 4.71653 14.1758 3.49153 16.0758 2.77486C17.9758 2.05819 19.9341 1.85819 21.9508 2.17486ZM3.92578 15.9749C4.50911 15.3915 5.22161 15.0957 6.06328 15.0874C6.90495 15.079 7.61745 15.3665 8.20078 15.9499C8.78411 16.5332 9.07161 17.2457 9.06328 18.0874C9.05495 18.929 8.75911 19.6415 8.17578 20.2249C7.75911 20.6415 7.06328 20.9999 6.08828 21.2999C5.11328 21.5999 3.76745 21.8665 2.05078 22.0999C2.28411 20.3832 2.55078 19.0374 2.85078 18.0624C3.15078 17.0874 3.50911 16.3915 3.92578 15.9749ZM5.35078 17.3749C5.18411 17.5415 5.01745 17.8457 4.85078 18.2874C4.68411 18.729 4.56745 19.1749 4.50078 19.6249C4.95078 19.5582 5.39661 19.4457 5.83828 19.2874C6.27995 19.129 6.58412 18.9665 6.75078 18.7999C6.95078 18.5999 7.05911 18.3582 7.07578 18.0749C7.09245 17.7915 7.00078 17.5499 6.80078 17.3499C6.60078 17.1499 6.35911 17.054 6.07578 17.0624C5.79245 17.0707 5.55078 17.1749 5.35078 17.3749Z" fill="#1C1B1F"/>
</g>
</svg>
